<?xml version="1.0" standalone="no"?>
<!DOCTYPE svg PUBLIC "-//W3C//DTD SVG 20010904//EN"
 "http://www.w3.org/TR/2001/REC-SVG-20010904/DTD/svg10.dtd">
<svg version="1.0" xmlns="http://www.w3.org/2000/svg"
 width="225.000000pt" height="225.000000pt" viewBox="0 0 225.000000 225.000000"
 preserveAspectRatio="xMidYMid meet">
<metadata>
Created by potrace 1.16, written by Peter Selinger 2001-2019
</metadata>
<g transform="translate(0.000000,225.000000) scale(0.100000,-0.100000)"
fill="#000000" stroke="none">
<path d="M100 1465 l0 -45 135 0 135 0 0 -100 0 -101 -87 3 -88 3 -3 83 -3 82
-44 0 -45 0 0 -130 0 -130 164 0 165 0 20 26 c19 24 21 40 21 163 l0 137 -28
27 c-28 27 -28 27 -185 27 l-157 0 0 -45z"/>
<path d="M532 1487 c-21 -22 -22 -33 -22 -190 l0 -167 50 0 50 0 0 70 c0 56 3
70 15 70 8 0 55 -31 104 -70 77 -61 94 -70 130 -70 39 0 41 2 41 29 0 23 -11
38 -51 70 l-52 41 52 0 51 0 0 120 0 120 -135 0 -135 0 0 -45 0 -45 85 0 c84
0 85 0 85 -25 0 -25 0 -25 -95 -25 l-95 0 0 70 0 70 -28 0 c-17 0 -37 -10 -50
-23z"/>
<path d="M950 1465 l0 -45 140 0 140 0 0 -145 0 -145 50 0 50 0 0 190 0 190
-190 0 -190 0 0 -45z"/>
<path d="M1402 1487 c-21 -22 -22 -32 -22 -190 l0 -167 48 0 47 0 -2 167 c-2
160 -3 167 -25 190 l-24 24 -22 -24z"/>
<path d="M1591 1433 l-90 -78 -1 -63 c0 -65 3 -68 41 -36 13 12 25 4 84 -56
62 -62 74 -70 107 -70 36 0 38 2 38 30 0 23 -15 46 -70 103 l-69 73 59 53 c51
45 60 57 60 87 0 32 -2 34 -34 34 -28 0 -50 -14 -125 -77z"/>
<path d="M1790 1465 l0 -45 158 0 c153 0 159 1 180 23 l22 23 -23 22 c-22 21
-33 22 -180 22 l-157 0 0 -45z"/>
<path d="M950 1260 l0 -130 44 0 45 0 3 53 3 52 65 3 c50 2 70 8 87 24 l23 22
-21 22 c-18 19 -34 24 -88 26 -64 3 -66 4 -69 31 -3 25 -7 27 -48 27 l-44 0 0
-130z"/>
<path d="M1790 1282 c0 -100 2 -110 23 -130 22 -20 33 -22 164 -22 127 0 142
2 158 20 18 20 18 21 -5 45 -22 24 -29 25 -132 25 l-108 0 0 25 c0 25 1 25 83
25 77 0 85 2 108 26 l24 26 -28 24 c-25 21 -38 24 -108 24 -46 0 -79 4 -79 10
0 6 -22 10 -50 10 l-50 0 0 -108z"/>
<path d="M90 920 l0 -180 1030 0 1029 0 3 180 3 180 -1032 0 -1033 0 0 -180z
m196 79 l12 -54 1 58 c1 43 5 57 16 57 13 0 15 -22 15 -140 0 -112 -3 -140
-14 -140 -9 0 -19 25 -29 73 l-15 72 -1 -72 c-1 -58 -4 -73 -16 -73 -13 0 -15
21 -15 133 0 74 3 137 7 141 15 15 28 -3 39 -55z m472 -82 c2 -109 0 -138 -10
-135 -8 3 -14 26 -16 61 -2 42 -7 57 -17 57 -12 0 -15 -14 -15 -60 0 -33 -4
-60 -10 -60 -6 0 -10 54 -10 141 l0 140 38 -3 37 -3 3 -138z m150 131 c7 -7
12 -37 12 -68 0 -58 -11 -80 -42 -80 -15 0 -18 -9 -18 -60 0 -47 -3 -60 -15
-60 -13 0 -15 22 -15 140 l0 140 33 0 c18 0 38 -5 45 -12z m290 0 c8 -8 12
-54 12 -140 0 -107 -2 -128 -15 -128 -12 0 -15 13 -15 60 0 47 -3 60 -15 60
-12 0 -15 -13 -15 -60 0 -47 -3 -60 -15 -60 -13 0 -15 21 -15 128 0 134 5 152
45 152 12 0 26 -5 33 -12z m117 -34 c12 -82 24 -95 22 -25 -1 44 2 65 11 68 9
4 12 -28 12 -136 0 -111 -3 -141 -13 -141 -9 0 -18 21 -24 58 l-10 57 -2 -57
c-1 -44 -5 -58 -16 -58 -13 0 -15 22 -15 140 0 113 3 140 14 140 9 0 16 -17
21 -46z m473 34 c8 -8 12 -54 12 -140 0 -107 -2 -128 -15 -128 -12 0 -15 13
-15 60 0 47 -3 60 -15 60 -12 0 -15 -13 -15 -60 0 -47 -3 -60 -15 -60 -13 0
-15 21 -15 128 0 134 5 152 45 152 12 0 26 -5 33 -12z m160 -131 c2 -109 0
-138 -10 -135 -8 3 -14 26 -16 61 -2 42 -7 57 -17 57 -12 0 -15 -14 -15 -60 0
-33 -4 -60 -10 -60 -6 0 -10 54 -10 141 l0 140 38 -3 37 -3 3 -138z"/>
</g>
</svg>
